<svg width="16" height="16" viewBox="0 0 16 16" fill="none" xmlns="http://www.w3.org/2000/svg">
<path d="M12.0207 11.0782L14.876 13.9328L13.9327 14.8762L11.078 12.0208C10.0158 12.8723 8.69468 13.3354 7.33334 13.3335C4.02134 13.3335 1.33334 10.6455 1.33334 7.3335C1.33334 4.0215 4.02134 1.3335 7.33334 1.3335C10.6453 1.3335 13.3333 4.0215 13.3333 7.3335C13.3353 8.69483 12.8722 10.016 12.0207 11.0782ZM10.6833 10.5835C11.5294 9.71342 12.0019 8.54712 12 7.3335C12 4.75483 9.91134 2.66683 7.33334 2.66683C4.75468 2.66683 2.66668 4.75483 2.66668 7.3335C2.66668 9.9115 4.75468 12.0002 7.33334 12.0002C8.54696 12.0021 9.71327 11.5296 10.5833 10.6835L10.6833 10.5835Z" fill="#565C5A"/>
</svg>
