<svg width="100" height="98" viewBox="0 0 100 98" fill="none" xmlns="http://www.w3.org/2000/svg">
<path d="M99.2889 38.1877V86.9805C99.2889 87.1868 99.2889 87.29 99.2889 87.4963C99.1857 90.2815 97.845 92.7572 95.8854 94.4077C94.1321 95.9551 91.8631 96.8835 89.3878 96.8835H10.9014C9.14806 96.8835 7.60102 96.4708 6.15712 95.6456C5.5383 95.3361 4.91948 94.9235 4.4038 94.4077C3.26931 93.4793 2.34109 92.2414 1.82541 90.7973C1.41286 89.7657 1.10345 88.7341 1.10345 87.5994V38.1877C1.10345 38.1877 5.22889 34.6804 11.1076 29.8321C17.1927 24.6743 25.2373 18.0723 32.2505 12.1924C36.2728 8.78828 35.8603 9.2009 42.0484 3.93994C46.7927 0.0200182 53.7028 0.0200182 58.447 3.93994C59.6847 4.9715 60.9223 6.10622 62.1599 7.13778C64.7383 9.2009 67.523 11.6766 70.6171 14.1524C76.9084 19.4133 83.8185 25.1901 89.2847 29.7289C94.854 34.371 98.8763 37.7751 99.2889 38.1877Z" fill="#68CAA3"/>
<path d="M85.7779 15.8018V46.5422L70.1012 55.9294L65.4601 58.7147L55.5591 64.5945L50.918 67.4829L48.9584 68.6176L47.1019 67.4829L42.6671 64.6977L33.2817 58.8178L28.8469 56.0326L14.4078 46.9549V15.8018C14.4078 12.6039 16.9862 9.92188 20.2866 9.92188H79.8992C83.1995 9.92188 85.7779 12.6039 85.7779 15.8018Z" fill="white"/>
<path d="M14.5112 39.3213V15.8018C14.5112 12.6039 17.0896 9.92188 20.3899 9.92188H80.0025C83.1997 9.92188 85.8812 12.5008 85.8812 15.8018V39.9403" stroke="#40B586" stroke-opacity="0.24" stroke-miterlimit="10" stroke-linecap="round" stroke-linejoin="round"/>
<path d="M73.0922 25.4386H29.0531C28.3312 25.4386 27.7123 24.8198 27.7123 23.9947C27.7123 23.1696 28.3312 22.5508 29.0531 22.5508H73.0922C73.8141 22.5508 74.4329 23.1696 74.4329 23.9947C74.4329 24.8198 73.8141 25.4386 73.0922 25.4386Z" fill="#ACE2CC"/>
<path d="M73.0922 34.1017H29.0531C28.3312 34.1017 27.7123 33.4829 27.7123 32.6578C27.7123 31.8327 28.3312 31.2139 29.0531 31.2139H73.0922C73.8141 31.2139 74.4329 31.8327 74.4329 32.6578C74.4329 33.4829 73.8141 34.1017 73.0922 34.1017Z" fill="#ACE2CC"/>
<path d="M55.6623 64.5977L50.9181 67.4855H47.102L42.6672 64.5977H55.6623Z" fill="#CAF6E5"/>
<path d="M99.2886 38.1865V87.4951C99.1855 90.2803 97.8447 92.756 95.8851 94.4065C94.1318 95.9539 91.8628 96.8823 89.3876 96.8823H10.9011C9.14781 96.8823 7.60077 96.4697 6.15687 95.6444C5.53806 95.3349 4.91924 94.9223 4.40356 94.4065C3.26907 93.4781 2.34084 92.2403 1.82516 90.7961C1.41262 89.7645 1.10321 88.733 1.10321 87.5982V87.4951V38.1865L45.0391 65.7292L48.8552 68.1018L50.1959 67.2765L51.4336 66.5544L99.2886 38.1865Z" fill="#95DABE"/>
<path d="M95.8852 94.4065C94.1318 95.9539 91.8628 96.8823 89.3876 96.8823H10.9011C9.14781 96.8823 7.60078 96.4697 6.15687 95.6444C5.53806 95.3349 4.91924 94.9223 4.40356 94.4065C3.26907 93.4781 2.34084 92.2403 1.82516 90.7961C1.41262 89.7645 1.10321 88.733 1.10321 87.5982V87.4951V38.1865L6.26001 41.2812L50.1959 67.3797L51.4336 68.1018L51.5367 68.2049L90.9346 91.5182L95.8852 94.4065Z" fill="#EDFCF6"/>
<path d="M7.49731 42.0059L43.2855 63.256" stroke="#40B586" stroke-opacity="0.24" stroke-miterlimit="10" stroke-linecap="round" stroke-linejoin="round"/>
<path d="M99.2885 38.1865V87.4951C99.1854 90.2803 97.8446 92.756 95.8851 94.4065C94.1318 95.9539 91.8628 96.8823 89.3875 96.8823H10.901C9.1477 96.8823 7.60066 96.4697 6.15675 95.6444C5.53794 95.3349 4.91912 94.9223 4.40344 94.4065L9.45711 91.415L48.8551 68.1018L50.1958 67.2765L51.4335 66.5544L94.2349 41.178L99.2885 38.1865Z" fill="#D3F8E9"/>
<path d="M94.1321 41.2812L51.3307 66.5545L50.0931 67.2766L48.7523 68.1018L12.0359 89.8677" stroke="#40B586" stroke-opacity="0.24" stroke-miterlimit="10" stroke-linecap="round" stroke-linejoin="round"/>
<path d="M87.4279 72.6401H61.3345C60.7157 72.6401 60.2 72.1244 60.2 71.5056C60.2 70.8868 60.7157 70.3711 61.3345 70.3711H87.4279C88.0467 70.3711 88.5624 70.8868 88.5624 71.5056C88.5624 72.1244 88.0467 72.6401 87.4279 72.6401Z" fill="#68CAA3"/>
<path d="M87.4279 80.1723H61.3345C60.7157 80.1723 60.2 79.6566 60.2 79.0378C60.2 78.419 60.7157 77.9033 61.3345 77.9033H87.4279C88.0467 77.9033 88.5624 78.419 88.5624 79.0378C88.5624 79.6566 88.0467 80.1723 87.4279 80.1723Z" fill="#68CAA3"/>
<path d="M1 50.0516V38.1886C4.91917 34.8876 8.21952 32.1024 11.0042 29.833" stroke="#40B586" stroke-opacity="0.24" stroke-miterlimit="10" stroke-linecap="round" stroke-linejoin="round"/>
<path d="M87.9436 28.6982C94.2349 33.9592 99.0823 37.9823 99.2886 38.1886C99.2886 38.4981 99.2886 87.1877 99.2886 87.4972C98.9792 92.7581 94.6474 96.8844 89.3875 96.8844C4.81603 96.8844 8.21952 97.8128 4.40349 94.4086C2.4439 92.655 1.20627 90.2824 1 87.6003V60.0577" stroke="#40B586" stroke-opacity="0.24" stroke-miterlimit="10" stroke-linecap="round" stroke-linejoin="round"/>
<path d="M37.3042 7.85987C38.645 6.72516 40.192 5.38413 42.0485 3.93995C46.7927 0.0200181 53.7028 0.0200181 58.4471 3.93995C58.8596 4.35257 61.6443 6.622 65.5635 9.92299" stroke="#40B586" stroke-opacity="0.24" stroke-miterlimit="10" stroke-linecap="round" stroke-linejoin="round"/>
</svg>
